<svg id="Layer_1" data-name="Layer 1" xmlns="http://www.w3.org/2000/svg" viewBox="0 0 45.26 21.45"><defs><style>.cls-1{fill:#fff;}</style></defs><path class="cls-1" d="M42.65,8.27l-.1,0C42.31,7.22,41,7,41,7l-.65-1.26c-.58-1.22-1.2-1.24-1.2-1.24-1.27-.47-6.37-.27-6.37-.27A6.73,6.73,0,0,0,31,4.5H13a1,1,0,0,0,0,1.94H29l-.47.73h-6.6a.67.67,0,1,0,0,1.33h2.67a3.11,3.11,0,0,0-.62.74,1,1,0,0,0,0,.1H15a1.11,1.11,0,0,0,0,2.22h8.48c0,.3,0,.5,0,.5a1.49,1.49,0,0,0-.18.24H5.68a1.11,1.11,0,0,0,0,2.22H23.81a2.86,2.86,0,0,0,.9,1.92,8.2,8.2,0,0,0,1.3,0,.78.78,0,0,0,.28-.1,5.42,5.42,0,0,1,.45-.47,4.28,4.28,0,0,0,.34-.88c1.18-.14,8.83.13,8.83.13a19,19,0,0,0,3-.16l.06.85a3.14,3.14,0,0,0,.53.85h1.43c.36-.08.57-.56.57-.56a9.53,9.53,0,0,0,.22-1.57,1.1,1.1,0,0,0,.82-.65,23.72,23.72,0,0,0,0-3A7,7,0,0,0,42.65,8.27Z"/><path class="cls-1" d="M18.44,8.5a.53.53,0,0,0,0-1.06h-4a.53.53,0,1,0,0,1.06Z"/><path class="cls-1" d="M7.68,11.23h4.6a.61.61,0,0,0,.61-.62.61.61,0,0,0-.61-.61H7.68a.61.61,0,0,0-.62.61A.62.62,0,0,0,7.68,11.23Z"/></svg>