<svg id="Layer_1" data-name="Layer 1" xmlns="http://www.w3.org/2000/svg" viewBox="0 0 39.32 39.32"><defs><style>.cls-1{fill:#fbb040;}.cls-2{fill:#fff;}.cls-3{opacity:0.43;}.cls-4{fill:#00a651;}</style></defs><path class="cls-1" d="M4.7,9H9.64v2.86H7.81V27.64H9.64V30.5H4.7Z"/><path class="cls-1" d="M35,30.5H30.1V27.64h1.82V11.87H30.1V9H35Z"/><rect class="cls-2" x="14.12" y="14.74" width="11.83" height="10.03" transform="translate(-7.46 25.76) rotate(-56.91)"/><g class="cls-3"><rect class="cls-4" x="21.42" y="12.35" width="0.26" height="7.16" transform="translate(-3.56 25.29) rotate(-56.9)"/><polygon class="cls-4" points="19.61 15.44 19.46 15.66 25.46 19.57 25.61 19.35 19.61 15.44"/><rect class="cls-4" x="19.8" y="14.22" width="0.26" height="5.14" transform="translate(-5.02 24.32) rotate(-56.9)"/><rect class="cls-4" x="21.22" y="17.62" width="0.26" height="5.14" transform="translate(-7.22 27.06) rotate(-56.91)"/><polygon class="cls-4" points="22.21 21.48 16.31 17.64 16.17 17.86 22.07 21.7 22.21 21.48"/><rect class="cls-4" x="20.48" y="19.8" width="0.26" height="4.07" transform="translate(-8.94 27.18) rotate(-56.9)"/><polygon class="cls-4" points="14.24 20.82 21.55 25.58 21.69 25.36 14.39 20.6 14.24 20.82"/><polygon class="cls-4" points="15.79 22.68 19.22 24.92 19.36 24.7 15.93 22.46 15.79 22.68"/></g></svg>