<svg id="Layer_1" data-name="Layer 1" xmlns="http://www.w3.org/2000/svg" viewBox="0 0 114.13 69.39"><defs><style>.cls-1{opacity:0.49;}.cls-2{fill:#00a651;}.cls-3{fill:#58595b;}</style></defs><g class="cls-1"><path class="cls-2" d="M58.86,21.72a2,2,0,0,0-.26-1H95.74a2.13,2.13,0,0,0,0-4.25H50.15a2.11,2.11,0,0,0-1.87,3.13H11.15a2.13,2.13,0,1,0,0,4.25H56.74A2.13,2.13,0,0,0,58.86,21.72Z"/><path class="cls-2" d="M107.36,35H48.05a2.89,2.89,0,0,0-.78.12H15.63a2.77,2.77,0,1,0,0,5.53H74.94a2.89,2.89,0,0,0,.78-.12h31.64a2.77,2.77,0,1,0,0-5.53Z"/><path class="cls-2" d="M98.94,45.83H39.63a2.76,2.76,0,0,0-1.75.64H18.65a2.13,2.13,0,1,0,0,4.25H37.88a2.76,2.76,0,0,0,1.75.64H98.94a2.77,2.77,0,1,0,0-5.53Z"/><path class="cls-2" d="M25.71,25.83a2.77,2.77,0,0,0,0,5.53H85a2.77,2.77,0,1,0,0-5.53Z"/><path class="cls-2" d="M19.74,15.56H88.65a3.22,3.22,0,0,0,0-6.43H19.74a3.22,3.22,0,1,0,0,6.43Z"/><path class="cls-2" d="M94.65,54.88H25.74a3.22,3.22,0,1,0,0,6.43H94.65a3.22,3.22,0,0,0,0-6.43Z"/></g><path class="cls-3" d="M32.33,51.56s-2.72-1.9-2.59-7.93c0,0-.44-1.13-.5-1.44,0,0-2.25-.34-.31-2.44,0,0-.29-4.53,1.31-7.62a7.38,7.38,0,0,1,9.12-3.22,1.81,1.81,0,0,0,1.72-.1s.1-.81.53-.87c0,0,4.41-7,4.82-7.34,0,0,2-1.84,7.65-1.92,0,0,13.79-.54,17.21.75,0,0,1.67,0,3.25,3.33l1.75,3.42s3.57.5,4.2,3.29l.29,0s.5,1.67-.33,7c0,0,.33,7.1,0,8.21a2.92,2.92,0,0,1-2.21,1.75,24.37,24.37,0,0,1-.59,4.25S77,52,76.07,52.22H72.2a8.13,8.13,0,0,1-1.42-2.29l-.17-2.29a49.75,49.75,0,0,1-8,.41s-20.64-.7-23.83-.33a11.72,11.72,0,0,1-.94,2.38,14.07,14.07,0,0,0-1.21,1.26,2.39,2.39,0,0,1-.75.28A20.08,20.08,0,0,1,32.33,51.56Z"/></svg>