<svg id="Layer_1" data-name="Layer 1" xmlns="http://www.w3.org/2000/svg" viewBox="0 0 39.32 39.32"><defs><style>.cls-1{fill:#fff;}</style></defs><path class="cls-1" d="M26.44,28.58a3.07,3.07,0,0,0,.61.48A3.21,3.21,0,0,1,27,25.94a3.27,3.27,0,0,1,.57-.77,3,3,0,0,1,.77-.56,3.18,3.18,0,0,1,3.12.08,3.07,3.07,0,0,0-.48-.61,3.19,3.19,0,0,0-3.73-.57L15.45,11.76A1.56,1.56,0,0,0,15,10.4a1.59,1.59,0,1,0-.89,2.7L25.87,24.85A3.19,3.19,0,0,0,26.44,28.58Z"/><path class="cls-1" d="M30.94,13.2a3.13,3.13,0,0,0,.48-.62,3.18,3.18,0,0,1-3.12.09,3,3,0,0,1-.77-.56,3.54,3.54,0,0,1-.57-.78,3.19,3.19,0,0,1,.09-3.11,3,3,0,0,0-.61.47,3.2,3.2,0,0,0-.57,3.74L14.12,24.18a1.57,1.57,0,0,0-1.36.45A1.59,1.59,0,0,0,15,26.88a1.56,1.56,0,0,0,.44-1.36L27.21,13.77A3.19,3.19,0,0,0,30.94,13.2Z"/></svg>