<svg id="Layer_1" data-name="Layer 1" xmlns="http://www.w3.org/2000/svg" viewBox="0 0 39.32 39.32"><defs><style>.cls-1{fill:#fff;}.cls-2{fill:#fbb040;}</style></defs><path class="cls-1" d="M28.05,19.3a.85.85,0,0,0,.73-.93.84.84,0,0,0-.73-.92H27a8.05,8.05,0,0,0-.21-1l1-.43a.86.86,0,0,0,.32-1.14.84.84,0,0,0-1-.56L26,14.76a7,7,0,0,0-.51-.74l.82-.81A1,1,0,0,0,25,11.9l-.84.85a7.8,7.8,0,0,0-.77-.5l.46-1.12a.94.94,0,0,0-1.7-.7l-.48,1.16a5.61,5.61,0,0,0-.91-.17V10.15a.84.84,0,0,0-.92-.73.85.85,0,0,0-.93.73v1.33a8.6,8.6,0,0,0-.88.19l-.52-1.24a.83.83,0,0,0-1.13-.32.85.85,0,0,0-.57,1l.54,1.29a7.63,7.63,0,0,0-.68.48l-1-1a.85.85,0,0,0-1.17.14.84.84,0,0,0-.13,1.17l1,1a7.8,7.8,0,0,0-.5.77l-1.35-.54a.84.84,0,0,0-1,.59.84.84,0,0,0,.33,1.12l1.37.55c-.06.24-.1.48-.14.73H11.6a.84.84,0,0,0-.73.92.85.85,0,0,0,.73.93h1.47a6.23,6.23,0,0,0,.17.86l-1.35.57a.85.85,0,0,0-.31,1.14.84.84,0,0,0,1,.56l1.33-.56a5.74,5.74,0,0,0,.43.66l-1,1a.94.94,0,0,0,1.3,1.3l1-1a5.43,5.43,0,0,0,.7.48l-.53,1.27a.95.95,0,0,0,1.7.71L18,25.1a6.59,6.59,0,0,0,.88.2v1.3a.85.85,0,0,0,.93.73.84.84,0,0,0,.92-.73V25.36a9.32,9.32,0,0,0,.92-.17l.48,1.13a.95.95,0,0,0,1.7-.71l-.46-1.09a7.94,7.94,0,0,0,.78-.5l.82.82a.84.84,0,0,0,1.17-.13.85.85,0,0,0,.14-1.17l-.81-.8a6.34,6.34,0,0,0,.59-.87l1,.42a1,1,0,0,0,.69-1.72l-1-.41A6.23,6.23,0,0,0,27,19.3Zm-3.34,0A4.7,4.7,0,0,1,24,21l-.08.12a4.91,4.91,0,0,1-1.34,1.27l0,0a4.72,4.72,0,0,1-1.72.65h-.06a4.52,4.52,0,0,1-.74.06,5.11,5.11,0,0,1-1.11-.13h0a4.66,4.66,0,0,1-1.66-.76h0A5.22,5.22,0,0,1,16,21l0-.06a4.79,4.79,0,0,1-.66-1.64h0a5.29,5.29,0,0,1-.08-.9,5.83,5.83,0,0,1,.07-.84s0-.06,0-.1A4.88,4.88,0,0,1,16,15.83l0,0,0,0a4.84,4.84,0,0,1,1.24-1.31l0,0a5,5,0,0,1,1.65-.75h0a4.25,4.25,0,0,1,1.85-.07h0a4.88,4.88,0,0,1,1.73.65l0,0A4.74,4.74,0,0,1,23.9,15.6l0,0a4.81,4.81,0,0,1,.75,1.68l0,.13a4.91,4.91,0,0,1,.09.94,5.5,5.5,0,0,1-.08.91A0,0,0,0,0,24.71,19.33Z"/><path class="cls-2" d="M4.49,7.63H9.43v2.86H7.61V26.26H9.43v2.86H4.49Z"/><path class="cls-2" d="M34.83,29.12H29.89V26.26h1.82V10.49H29.89V7.63h4.94Z"/></svg>