<svg id="Layer_1" data-name="Layer 1" xmlns="http://www.w3.org/2000/svg" viewBox="0 0 39.32 39.32"><defs><style>.cls-1{fill:#fff;}.cls-2{fill:#fbb040;}</style></defs><path class="cls-1" d="M18.41,24a3.93,3.93,0,0,1-4.17,3.63A3.92,3.92,0,0,1,10.08,24c0-2,3.12-5.35,4.16-8.2C15.09,17.11,18.41,22,18.41,24Z"/><path class="cls-1" d="M26,17.41a3.93,3.93,0,0,1-4.17,3.64,3.93,3.93,0,0,1-4.17-3.64c0-2,3.12-5.35,4.17-8.2C22.71,10.49,26,15.4,26,17.41Z"/><path class="cls-2" d="M4.49,8.32H9.43v2.87H7.6V27H9.43v2.86H4.49Z"/><path class="cls-2" d="M34.83,29.81H29.89V27h1.82V11.19H29.89V8.32h4.94Z"/></svg>